{"glyphs":{"0":{"ha":1110,"x_min":0,"x_max":0,"o":"m 556 -17 b 332 29 472 -17 397 -1 b 175 156 269 58 217 101 b 61 551 100 254 61 390 b 175 917 61 711 100 818 b 332 1043 217 971 269 1014 b 556 1089 397 1074 472 1089 b 778 1043 638 1089 713 1074 b 935 917 840 1014 893 971 b 1049 551 1010 818 1049 711 b 935 156 1049 390 1010 254 b 778 29 893 101 840 58 b 556 -17 713 -1 638 -17 z m 556 957 b 281 836 433 957 342 917 b 193 551 224 761 193 682 b 281 236 193 419 224 311 b 556 115 342 156 433 115 b 829 236 676 115 768 156 b 917 551 886 311 917 419 b 829 836 917 682 886 761 b 556 957 768 917 676 957 z "},"1":{"ha":726,"x_min":0,"x_max":0,"o":"m 439 132 l 439 1072 l 29 1072 l 29 940 l 307 940 l 307 132 l 29 132 l 29 0 l 706 0 l 706 132 z "},"2":{"ha":1114,"x_min":0,"x_max":0,"o":"m 1001 0 l 75 0 l 75 226 b 549 357 275 265 399 297 b 935 706 738 435 935 554 b 582 957 935 886 782 957 b 183 706 365 957 183 906 l 51 706 b 582 1089 51 982 281 1089 b 1071 706 861 1089 1071 961 b 596 235 1071 488 847 335 b 271 132 475 186 356 153 l 1001 132 z "},"3":{"ha":1117,"x_min":0,"x_max":0,"o":"m 590 -17 b 43 428 272 -17 43 124 l 175 428 b 590 115 175 204 346 115 b 929 331 758 115 929 175 b 518 526 929 513 793 526 l 453 526 l 453 760 l 864 849 l 864 940 l 110 940 l 110 1072 l 996 1072 l 996 743 l 585 660 l 585 657 b 1061 331 865 651 1061 600 b 590 -17 1061 106 850 -17 z "},"4":{"ha":957,"x_min":0,"x_max":0,"o":"m 857 0 l 725 0 l 725 232 l -8 232 l -8 536 l 554 1072 l 857 1072 l 857 364 l 985 364 l 985 232 l 857 232 z m 124 364 l 725 364 l 725 942 l 607 940 l 124 479 z "},"5":{"ha":1140,"x_min":0,"x_max":0,"o":"m 586 -17 b 244 76 457 -17 336 17 b 85 356 140 146 85 244 l 215 356 b 317 186 215 271 271 215 b 438 132 351 163 392 144 b 586 114 485 119 535 114 b 950 389 772 114 950 233 b 603 649 950 593 774 649 b 289 508 458 649 385 604 l 106 507 l 106 1072 l 1014 1072 l 1014 942 l 235 942 l 235 639 b 603 778 344 740 467 778 b 1081 389 907 778 1081 633 b 586 -17 1081 157 856 -17 z "},"6":{"ha":1142,"x_min":0,"x_max":0,"o":"m 568 763 b 301 713 468 763 378 744 b 507 864 353 776 421 826 b 863 938 658 932 817 938 l 863 1072 b 454 988 796 1072 625 1064 b 61 378 201 876 61 663 b 568 -17 75 117 283 -17 b 1076 372 846 -17 1076 119 b 568 763 1076 624 844 763 z m 568 115 b 193 379 353 115 204 193 b 194 399 193 386 193 392 b 568 631 207 561 397 631 b 944 372 776 631 936 547 b 568 115 942 192 771 115 z "},"7":{"ha":967,"x_min":0,"x_max":0,"o":"m 114 0 l 114 419 l 847 835 l 847 940 l 6 940 l 6 1072 l 979 1072 l 979 758 l 246 343 l 246 0 z "},"8":{"ha":1078,"x_min":0,"x_max":0,"o":"m 875 571 b 999 801 953 617 999 689 b 538 1090 999 999 767 1090 b 78 801 306 1090 78 994 b 201 571 78 689 125 617 b 44 300 104 521 44 436 b 538 -17 44 92 292 -17 b 1032 300 786 -17 1032 92 b 875 571 1032 438 971 522 z m 210 801 b 538 963 210 913 386 963 b 867 801 693 963 867 910 b 538 632 867 658 728 632 b 210 801 343 632 210 661 z m 538 111 b 176 300 364 111 176 178 b 538 504 176 468 326 504 b 900 300 754 504 900 465 b 538 111 900 175 704 111 z "},"9":{"ha":1153,"x_min":0,"x_max":0,"o":"m 1088 706 b 579 1089 1067 969 867 1089 b 71 713 300 1089 78 964 b 71 707 71 711 71 708 l 71 701 b 579 332 78 458 313 332 b 944 435 717 332 849 368 b 581 110 906 242 792 110 b 218 304 410 110 304 168 l 106 240 b 581 -17 217 61 365 -17 b 1088 706 961 -17 1119 301 z m 579 458 b 203 707 382 458 207 538 b 579 963 207 888 375 963 b 956 697 799 963 942 889 b 579 458 951 531 753 458 z "}," ":{"ha":417,"x_min":0,"x_max":0,"o":""},"A":{"ha":1132,"x_min":0,"x_max":0,"o":"m 746 1074 l 388 1074 l 3 0 l 136 0 l 229 261 l 904 261 l 997 0 l 1131 0 z m 860 386 l 274 386 l 474 949 l 658 949 z "},"Á":{"ha":1132,"x_min":0,"x_max":0,"o":"m 574 1153 l 511 1260 l 813 1438 l 875 1329 z m 746 1074 l 388 1074 l 3 0 l 136 0 l 229 261 l 904 261 l 997 0 l 1131 0 z m 860 386 l 274 386 l 474 949 l 658 949 z "},"Â":{"ha":1132,"x_min":0,"x_max":0,"o":"m 818 1122 l 564 1263 l 311 1122 l 247 1238 l 564 1414 l 882 1238 z m 746 1074 l 388 1074 l 3 0 l 136 0 l 229 261 l 904 261 l 997 0 l 1131 0 z m 860 386 l 274 386 l 474 949 l 658 949 z "},"Ä":{"ha":1132,"x_min":0,"x_max":0,"o":"m 267 1246 b 363 1342 267 1299 310 1342 b 458 1246 417 1342 458 1299 b 363 1149 458 1192 417 1149 b 267 1246 310 1149 267 1192 z m 668 1246 b 764 1342 668 1299 711 1342 b 861 1246 818 1342 861 1299 b 764 1149 861 1192 818 1149 b 668 1246 711 1149 668 1192 z m 746 1074 l 388 1074 l 3 0 l 136 0 l 229 261 l 904 261 l 997 0 l 1131 0 z m 860 386 l 274 386 l 474 949 l 658 949 z "},"À":{"ha":1132,"x_min":0,"x_max":0,"o":"m 575 1153 l 274 1329 l 336 1438 l 638 1260 z m 746 1074 l 388 1074 l 3 0 l 136 0 l 229 261 l 904 261 l 997 0 l 1131 0 z m 860 386 l 274 386 l 474 949 l 658 949 z "},"Ā":{"ha":1132,"x_min":0,"x_max":0,"o":"m 846 1189 l 268 1189 l 268 1314 l 846 1314 z m 746 1074 l 388 1074 l 3 0 l 136 0 l 229 261 l 904 261 l 997 0 l 1131 0 z m 860 386 l 274 386 l 474 949 l 658 949 z "},"Å":{"ha":1132,"x_min":0,"x_max":0,"o":"m 568 1119 b 421 1265 488 1119 421 1185 b 568 1411 421 1346 488 1411 b 714 1265 649 1411 714 1346 b 568 1119 714 1185 649 1119 z m 568 1321 b 511 1265 538 1321 511 1296 b 568 1208 511 1233 538 1208 b 625 1265 599 1208 625 1233 b 568 1321 625 1296 599 1321 z m 746 1074 l 388 1074 l 3 0 l 136 0 l 229 261 l 904 261 l 997 0 l 1131 0 z m 860 386 l 274 386 l 474 949 l 658 949 z "},"Ã":{"ha":1132,"x_min":0,"x_max":0,"o":"m 397 1149 l 278 1149 b 446 1340 278 1257 351 1340 b 589 1299 494 1340 543 1319 b 681 1269 622 1285 658 1269 b 729 1342 704 1269 729 1299 l 849 1342 b 681 1149 849 1235 774 1149 b 540 1189 633 1149 585 1169 b 446 1221 506 1206 469 1221 b 397 1149 419 1221 397 1189 z m 746 1074 l 388 1074 l 3 0 l 136 0 l 229 261 l 904 261 l 997 0 l 1131 0 z m 860 386 l 274 386 l 474 949 l 658 949 z "},"Æ":{"ha":1349,"x_min":0,"x_max":0,"o":"m 1300 947 l 1300 1072 l 388 1072 l 3 0 l 136 0 l 229 261 l 638 261 l 638 0 l 1300 0 l 1300 125 l 763 126 l 763 471 l 1269 471 l 1269 603 l 763 603 l 763 947 z m 638 386 l 274 386 l 474 947 l 638 947 z "},"B":{"ha":1125,"x_min":0,"x_max":0,"o":"m 1090 303 b 861 568 1090 454 1008 532 b 956 789 924 619 956 696 b 496 1072 956 1033 747 1072 l 128 1072 l 128 0 l 526 0 b 1090 303 861 -7 1090 35 z m 496 947 b 831 789 661 947 831 939 b 494 604 831 626 688 604 l 253 604 l 253 949 z m 958 303 b 526 125 958 142 790 125 l 253 125 l 253 479 l 494 479 b 958 303 692 479 958 475 z "},"C":{"ha":1178,"x_min":0,"x_max":0,"o":"m 621 -17 b 67 540 278 -17 67 201 b 621 1089 67 867 275 1089 b 1128 782 853 1089 1043 988 l 1015 736 b 621 964 953 890 797 964 b 192 540 353 964 192 797 b 621 108 192 278 347 108 b 1015 353 818 108 957 196 l 1135 307 b 621 -17 1056 96 867 -17 z "},"Ć":{"ha":1178,"x_min":0,"x_max":0,"o":"m 626 1153 l 564 1260 l 865 1438 l 928 1329 z m 621 -17 b 67 540 278 -17 67 201 b 621 1089 67 867 275 1089 b 1128 782 853 1089 1043 988 l 1015 736 b 621 964 953 890 797 964 b 192 540 353 964 192 797 b 621 108 192 278 347 108 b 1015 353 818 108 957 196 l 1135 307 b 621 -17 1056 96 867 -17 z "},"ć":{"ha":1178,"x_min":0,"x_max":0,"o":"m 626 1153 l 564 1260 l 865 1438 l 928 1329 z m 621 -17 b 67 540 278 -17 67 201 b 621 1089 67 867 275 1089 b 1128 782 853 1089 1043 988 l 1015 736 b 621 964 953 890 797 964 b 192 540 353 964 192 797 b 621 108 192 278 347 108 b 1015 353 818 108 957 196 l 1135 307 b 621 -17 1056 96 867 -17 z "},"Ç":{"ha":1178,"x_min":0,"x_max":0,"o":"m 1135 307 l 1015 353 b 621 108 957 196 818 108 b 192 540 347 108 192 278 b 621 964 192 797 353 964 b 1015 736 797 964 953 890 l 1128 782 b 621 1089 1043 988 853 1089 b 67 540 275 1089 67 867 b 569 -15 67 218 257 6 l 569 -140 l 656 -140 b 700 -186 682 -140 700 -158 b 656 -233 700 -214 682 -233 b 607 -186 628 -233 607 -214 l 506 -186 b 654 -335 506 -268 572 -335 b 801 -186 736 -335 801 -268 b 671 -40 801 -114 754 -40 l 671 -15 b 1135 307 892 0 1061 110 z "},"D":{"ha":1168,"x_min":0,"x_max":0,"o":"m 531 0 l 128 0 l 128 1072 l 531 1072 b 893 1007 633 1072 776 1071 b 1049 844 961 969 1013 915 b 1107 556 1088 768 1107 671 b 1051 244 1107 429 1089 328 b 900 71 1017 169 965 111 b 531 0 785 0 642 0 z m 260 132 l 531 132 b 832 183 631 132 747 132 b 931 300 875 210 907 247 b 975 556 960 364 975 450 b 931 786 975 650 960 728 b 829 892 907 832 874 867 b 531 940 743 939 625 940 l 260 940 z "},"E":{"ha":1050,"x_min":0,"x_max":0,"o":"m 260 471 l 993 471 l 993 603 l 260 603 l 260 940 l 1024 940 l 1024 1072 l 128 1072 l 128 0 l 1024 0 l 1024 131 l 260 132 z "},"É":{"ha":1050,"x_min":0,"x_max":0,"o":"m 590 1153 l 528 1260 l 829 1438 l 892 1329 z m 260 471 l 993 471 l 993 603 l 260 603 l 260 940 l 1024 940 l 1024 1072 l 128 1072 l 128 0 l 1024 0 l 1024 131 l 260 132 z "},"Ê":{"ha":1050,"x_min":0,"x_max":0,"o":"m 835 1122 l 581 1263 l 328 1122 l 264 1238 l 581 1414 l 899 1238 z m 260 471 l 993 471 l 993 603 l 260 603 l 260 940 l 1024 940 l 1024 1072 l 128 1072 l 128 0 l 1024 0 l 1024 131 l 260 132 z "},"Ë":{"ha":1050,"x_min":0,"x_max":0,"o":"m 283 1246 b 379 1342 283 1299 326 1342 b 475 1246 433 1342 475 1299 b 379 1149 475 1192 433 1149 b 283 1246 326 1149 283 1192 z m 685 1246 b 781 1342 685 1299 728 1342 b 878 1246 835 1342 878 1299 b 781 1149 878 1192 835 1149 b 685 1246 728 1149 685 1192 z m 260 471 l 993 471 l 993 603 l 260 603 l 260 940 l 1024 940 l 1024 1072 l 128 1072 l 128 0 l 1024 0 l 1024 131 l 260 132 z "},"È":{"ha":1050,"x_min":0,"x_max":0,"o":"m 592 1153 l 290 1329 l 353 1438 l 654 1260 z m 260 471 l 993 471 l 993 603 l 260 603 l 260 940 l 1024 940 l 1024 1072 l 128 1072 l 128 0 l 1024 0 l 1024 131 l 260 132 z "},"Ē":{"ha":1050,"x_min":0,"x_max":0,"o":"m 863 1189 l 285 1189 l 285 1314 l 863 1314 z m 260 471 l 993 471 l 993 603 l 260 603 l 260 940 l 1024 940 l 1024 1072 l 128 1072 l 128 0 l 1024 0 l 1024 131 l 260 132 z "},"F":{"ha":1054,"x_min":0,"x_max":0,"o":"m 260 471 l 993 471 l 993 603 l 260 603 l 260 940 l 1024 940 l 1024 1072 l 128 1072 l 128 0 l 260 0 z "},"G":{"ha":1272,"x_min":0,"x_max":0,"o":"m 1182 607 l 615 607 l 615 475 l 1039 475 b 942 238 1029 379 996 299 b 814 150 907 200 865 169 b 621 115 758 128 693 115 b 428 150 547 115 483 128 b 300 238 376 169 333 200 b 199 542 233 311 199 417 b 300 835 199 667 233 761 b 428 924 333 874 376 903 b 621 957 483 946 547 957 b 1007 731 813 957 946 879 l 1129 781 b 944 1004 1089 876 1028 951 b 621 1089 856 1061 747 1089 b 378 1046 531 1089 449 1075 b 201 924 308 1018 250 976 b 67 542 114 825 67 700 b 201 150 67 383 114 247 b 378 28 250 96 308 56 b 621 -17 449 -1 531 -17 b 864 28 711 -17 793 -1 b 1050 161 931 54 1018 114 l 1050 0 l 1182 0 z "},"H":{"ha":1197,"x_min":0,"x_max":0,"o":"m 938 1072 l 938 601 l 260 601 l 260 1072 l 128 1072 l 128 0 l 260 0 l 260 469 l 938 469 l 938 0 l 1069 0 l 1069 1072 z "},"I":{"ha":782,"x_min":0,"x_max":0,"o":"m 721 940 l 721 1072 l 61 1072 l 61 940 l 325 940 l 325 132 l 61 132 l 61 0 l 721 0 l 721 132 l 457 132 l 457 940 z "},"Í":{"ha":782,"x_min":0,"x_max":0,"o":"m 396 1153 l 333 1260 l 635 1438 l 697 1329 z m 721 940 l 721 1072 l 61 1072 l 61 940 l 325 940 l 325 132 l 61 132 l 61 0 l 721 0 l 721 132 l 457 132 l 457 940 z "},"Î":{"ha":782,"x_min":0,"x_max":0,"o":"m 640 1122 l 386 1263 l 133 1122 l 69 1238 l 386 1414 l 704 1238 z m 721 940 l 721 1072 l 61 1072 l 61 940 l 325 940 l 325 132 l 61 132 l 61 0 l 721 0 l 721 132 l 457 132 l 457 940 z "},"Ï":{"ha":782,"x_min":0,"x_max":0,"o":"m 89 1246 b 185 1342 89 1299 132 1342 b 281 1246 239 1342 281 1299 b 185 1149 281 1192 239 1149 b 89 1246 132 1149 89 1192 z m 490 1246 b 586 1342 490 1299 533 1342 b 683 1246 640 1342 683 1299 b 586 1149 683 1192 640 1149 b 490 1246 533 1149 490 1192 z m 721 940 l 721 1072 l 61 1072 l 61 940 l 325 940 l 325 132 l 61 132 l 61 0 l 721 0 l 721 132 l 457 132 l 457 940 z "},"Ì":{"ha":782,"x_min":0,"x_max":0,"o":"m 397 1153 l 96 1329 l 158 1438 l 460 1260 z m 721 940 l 721 1072 l 61 1072 l 61 940 l 325 940 l 325 132 l 61 132 l 61 0 l 721 0 l 721 132 l 457 132 l 457 940 z "},"Ī":{"ha":782,"x_min":0,"x_max":0,"o":"m 668 1189 l 90 1189 l 90 1314 l 668 1314 z m 721 940 l 721 1072 l 61 1072 l 61 940 l 325 940 l 325 132 l 61 132 l 61 0 l 721 0 l 721 132 l 457 132 l 457 940 z "},"J":{"ha":1226,"x_min":0,"x_max":0,"o":"m 1122 1072 l 593 1072 l 593 940 l 792 940 l 792 540 b 717 203 792 374 768 265 b 456 115 660 132 564 115 b 147 349 299 115 196 197 l 21 310 b 456 -17 86 107 236 -17 b 819 119 601 -17 732 14 b 924 540 901 224 925 378 l 924 940 l 1122 940 z "},"K":{"ha":1142,"x_min":0,"x_max":0,"o":"m 957 0 l 1144 0 l 601 538 l 1117 1072 l 933 1072 l 481 603 l 260 603 l 260 1072 l 128 1072 l 128 0 l 260 0 l 260 471 l 482 471 z "},"L":{"ha":1039,"x_min":0,"x_max":0,"o":"m 260 132 l 260 1072 l 128 1072 l 128 0 l 1024 0 l 1024 132 z "},"M":{"ha":1407,"x_min":0,"x_max":0,"o":"m 1279 1072 l 879 1072 l 757 132 l 649 132 l 528 1072 l 128 1072 l 128 0 l 260 0 l 260 940 l 411 940 l 533 0 l 874 0 l 994 940 l 1147 940 l 1147 0 l 1279 0 z "},"N":{"ha":1204,"x_min":0,"x_max":0,"o":"m 947 1072 l 947 132 l 769 132 l 579 1072 l 128 1072 l 128 0 l 260 0 l 260 940 l 471 940 l 663 0 l 1079 0 l 1079 1072 z "},"O":{"ha":1231,"x_min":0,"x_max":0,"o":"m 615 -17 b 61 540 271 -17 61 200 b 615 1089 61 871 276 1089 b 1169 540 950 1089 1169 875 b 615 -17 1169 203 963 -17 z m 615 964 b 186 540 357 964 186 806 b 615 108 186 278 343 108 b 1044 540 886 108 1044 275 b 615 964 1044 797 883 964 z "},"Ó":{"ha":1231,"x_min":0,"x_max":0,"o":"m 621 1153 l 558 1260 l 860 1438 l 922 1329 z m 615 -17 b 61 540 271 -17 61 200 b 615 1089 61 871 276 1089 b 1169 540 950 1089 1169 875 b 615 -17 1169 203 963 -17 z m 615 964 b 186 540 357 964 186 806 b 615 108 186 278 343 108 b 1044 540 886 108 1044 275 b 615 964 1044 797 883 964 z "},"Ô":{"ha":1231,"x_min":0,"x_max":0,"o":"m 865 1122 l 611 1263 l 358 1122 l 294 1238 l 611 1414 l 929 1238 z m 615 -17 b 61 540 271 -17 61 200 b 615 1089 61 871 276 1089 b 1169 540 950 1089 1169 875 b 615 -17 1169 203 963 -17 z m 615 964 b 186 540 357 964 186 806 b 615 108 186 278 343 108 b 1044 540 886 108 1044 275 b 615 964 1044 797 883 964 z "},"Ö":{"ha":1231,"x_min":0,"x_max":0,"o":"m 314 1246 b 410 1342 314 1299 357 1342 b 506 1246 464 1342 506 1299 b 410 1149 506 1192 464 1149 b 314 1246 357 1149 314 1192 z m 715 1246 b 811 1342 715 1299 758 1342 b 908 1246 865 1342 908 1299 b 811 1149 908 1192 865 1149 b 715 1246 758 1149 715 1192 z m 615 -17 b 61 540 271 -17 61 200 b 615 1089 61 871 276 1089 b 1169 540 950 1089 1169 875 b 615 -17 1169 203 963 -17 z m 615 964 b 186 540 357 964 186 806 b 615 108 186 278 343 108 b 1044 540 886 108 1044 275 b 615 964 1044 797 883 964 z "},"Ò":{"ha":1231,"x_min":0,"x_max":0,"o":"m 622 1153 l 321 1329 l 383 1438 l 685 1260 z m 615 -17 b 61 540 271 -17 61 200 b 615 1089 61 871 276 1089 b 1169 540 950 1089 1169 875 b 615 -17 1169 203 963 -17 z m 615 964 b 186 540 357 964 186 806 b 615 108 186 278 343 108 b 1044 540 886 108 1044 275 b 615 964 1044 797 883 964 z "},"Ō":{"ha":1231,"x_min":0,"x_max":0,"o":"m 893 1189 l 315 1189 l 315 1314 l 893 1314 z m 615 -17 b 61 540 271 -17 61 200 b 615 1089 61 871 276 1089 b 1169 540 950 1089 1169 875 b 615 -17 1169 203 963 -17 z m 615 964 b 186 540 357 964 186 806 b 615 108 186 278 343 108 b 1044 540 886 108 1044 275 b 615 964 1044 797 883 964 z "},"Ø":{"ha":1231,"x_min":0,"x_max":0,"o":"m 976 976 l 1039 1072 l 894 1072 l 872 1039 b 615 1089 797 1071 711 1089 b 61 540 276 1089 61 871 b 254 94 61 346 131 190 l 192 0 l 336 0 l 358 33 b 615 -17 432 0 518 -17 b 1169 540 963 -17 1169 203 b 976 976 1169 731 1099 882 z m 186 540 b 615 964 186 806 357 964 b 801 932 685 964 747 953 l 324 203 b 186 540 235 278 186 394 z m 615 108 b 428 140 544 108 482 119 l 907 871 b 1044 540 996 796 1044 682 b 615 108 1044 275 886 108 z "},"Õ":{"ha":1231,"x_min":0,"x_max":0,"o":"m 444 1149 l 325 1149 b 493 1340 325 1257 399 1340 b 636 1299 542 1340 590 1319 b 728 1269 669 1285 706 1269 b 776 1342 751 1269 776 1299 l 896 1342 b 728 1149 896 1235 821 1149 b 588 1189 681 1149 632 1169 b 493 1221 553 1206 517 1221 b 444 1149 467 1221 444 1189 z m 615 -17 b 61 540 271 -17 61 200 b 615 1089 61 871 276 1089 b 1169 540 950 1089 1169 875 b 615 -17 1169 203 963 -17 z m 615 964 b 186 540 357 964 186 806 b 615 108 186 278 343 108 b 1044 540 886 108 1044 275 b 615 964 1044 797 883 964 z "},"Œ":{"ha":1967,"x_min":0,"x_max":0,"o":"m 1940 940 l 1940 1072 l 1044 1072 l 1044 911 b 615 1089 947 1025 799 1089 b 61 540 276 1089 61 871 b 615 -17 61 200 271 -17 b 1044 160 803 -17 949 47 l 1044 0 l 1940 0 l 1940 131 l 1176 132 l 1176 471 l 1910 471 l 1910 603 l 1176 603 l 1176 940 z m 615 108 b 186 540 343 108 186 278 b 615 964 186 806 357 964 b 1044 540 883 964 1044 797 b 615 108 1044 275 886 108 z "},"P":{"ha":1097,"x_min":0,"x_max":0,"o":"m 260 0 l 128 0 l 129 1072 l 594 1072 b 1058 792 843 1075 1058 1033 b 594 481 1058 540 860 481 l 260 481 z m 260 613 l 594 613 b 926 792 782 613 926 633 b 594 940 926 928 781 940 l 260 940 z "},"Q":{"ha":1231,"x_min":0,"x_max":0,"o":"m 904 49 l 940 4 l 1110 4 l 1011 125 l 1035 149 b 1169 540 1122 247 1169 382 b 1035 922 1169 699 1122 825 b 858 1044 986 976 928 1017 b 615 1089 786 1074 706 1089 b 372 1044 525 1089 443 1074 b 196 922 303 1017 243 976 b 61 540 108 825 61 699 b 196 149 61 382 108 247 b 372 26 243 96 303 54 b 615 -17 443 -1 525 -17 b 858 26 706 -17 788 -1 b 904 49 874 33 889 40 z m 808 149 b 615 115 753 126 688 115 b 422 149 542 115 478 126 b 294 238 371 169 328 199 b 193 540 228 311 193 415 b 294 835 193 665 228 761 b 422 922 328 872 371 903 b 615 957 478 944 542 957 b 808 922 688 957 753 944 b 936 835 860 903 901 872 b 1038 540 1003 761 1038 665 b 928 229 1038 428 1007 308 l 693 519 l 590 436 l 819 154 b 808 149 815 151 813 150 z "},"R":{"ha":1156,"x_min":0,"x_max":0,"o":"m 260 0 l 260 475 l 528 475 l 853 0 l 1022 0 l 697 478 b 1058 786 907 492 1058 572 b 596 1072 1058 1021 846 1072 l 128 1072 l 128 0 z m 260 940 l 596 940 b 926 786 774 940 926 925 b 596 607 926 626 788 607 l 260 607 z "},"S":{"ha":1188,"x_min":0,"x_max":0,"o":"m 631 -17 b 28 297 389 -17 165 90 l 138 369 b 631 115 249 203 429 115 b 1004 308 797 115 1004 172 b 528 497 1004 464 789 476 b 110 779 283 519 110 564 b 599 1086 110 993 347 1096 b 1056 865 724 1079 906 1036 l 956 778 b 593 954 864 885 733 947 b 242 779 432 961 242 908 b 539 629 242 660 354 646 b 1136 308 846 601 1136 578 b 631 -17 1136 90 889 -17 z "},"Š":{"ha":1188,"x_min":0,"x_max":0,"o":"m 851 1414 l 913 1304 l 596 1128 l 281 1304 l 340 1414 l 596 1271 z m 631 -17 b 28 297 389 -17 165 90 l 138 369 b 631 115 249 203 429 115 b 1004 308 797 115 1004 172 b 528 497 1004 464 789 476 b 110 779 283 519 110 564 b 599 1086 110 993 347 1096 b 1056 865 724 1079 906 1036 l 956 778 b 593 954 864 885 733 947 b 242 779 432 961 242 908 b 539 629 242 660 354 646 b 1136 308 846 601 1136 578 b 631 -17 1136 90 889 -17 z "},"T":{"ha":1013,"x_min":0,"x_max":0,"o":"m 983 1072 l 29 1072 l 29 940 l 440 940 l 440 0 l 572 0 l 572 940 l 983 940 z "},"U":{"ha":1282,"x_min":0,"x_max":0,"o":"m 640 -17 b 104 540 303 -17 104 204 l 104 1072 l 236 1072 l 236 540 b 640 115 236 281 374 115 b 1046 540 904 115 1046 276 l 1046 1072 l 1178 1072 l 1178 540 b 640 -17 1178 208 979 -17 z "},"Ú":{"ha":1282,"x_min":0,"x_max":0,"o":"m 646 1153 l 583 1260 l 885 1438 l 947 1329 z m 640 -17 b 104 540 303 -17 104 204 l 104 1072 l 236 1072 l 236 540 b 640 115 236 281 374 115 b 1046 540 904 115 1046 276 l 1046 1072 l 1178 1072 l 1178 540 b 640 -17 1178 208 979 -17 z "},"Û":{"ha":1282,"x_min":0,"x_max":0,"o":"m 890 1122 l 636 1263 l 383 1122 l 319 1238 l 636 1414 l 954 1238 z m 640 -17 b 104 540 303 -17 104 204 l 104 1072 l 236 1072 l 236 540 b 640 115 236 281 374 115 b 1046 540 904 115 1046 276 l 1046 1072 l 1178 1072 l 1178 540 b 640 -17 1178 208 979 -17 z "},"Ü":{"ha":1282,"x_min":0,"x_max":0,"o":"m 339 1246 b 435 1342 339 1299 382 1342 b 531 1246 489 1342 531 1299 b 435 1149 531 1192 489 1149 b 339 1246 382 1149 339 1192 z m 740 1246 b 836 1342 740 1299 783 1342 b 933 1246 890 1342 933 1299 b 836 1149 933 1192 890 1149 b 740 1246 783 1149 740 1192 z m 640 -17 b 104 540 303 -17 104 204 l 104 1072 l 236 1072 l 236 540 b 640 115 236 281 374 115 b 1046 540 904 115 1046 276 l 1046 1072 l 1178 1072 l 1178 540 b 640 -17 1178 208 979 -17 z "},"Ù":{"ha":1282,"x_min":0,"x_max":0,"o":"m 647 1153 l 346 1329 l 408 1438 l 710 1260 z m 640 -17 b 104 540 303 -17 104 204 l 104 1072 l 236 1072 l 236 540 b 640 115 236 281 374 115 b 1046 540 904 115 1046 276 l 1046 1072 l 1178 1072 l 1178 540 b 640 -17 1178 208 979 -17 z "},"Ū":{"ha":1282,"x_min":0,"x_max":0,"o":"m 918 1189 l 340 1189 l 340 1314 l 918 1314 z m 640 -17 b 104 540 303 -17 104 204 l 104 1072 l 236 1072 l 236 540 b 640 115 236 281 374 115 b 1046 540 904 115 1046 276 l 1046 1072 l 1178 1072 l 1178 540 b 640 -17 1178 208 979 -17 z "},"V":{"ha":1133,"x_min":0,"x_max":0,"o":"m 993 1072 l 656 132 l 486 132 l 147 1072 l 7 1072 l 393 0 l 749 0 l 1133 1072 z "},"W":{"ha":1326,"x_min":0,"x_max":0,"o":"m 1179 1072 l 1057 132 l 956 132 l 833 1072 l 493 1072 l 371 132 l 268 132 l 147 1072 l 14 1072 l 153 0 l 486 0 l 610 940 l 717 940 l 839 0 l 1174 0 l 1313 1072 z "},"X":{"ha":1072,"x_min":0,"x_max":0,"o":"m 1071 1072 l 913 1072 l 599 604 l 460 604 l 146 1072 l -12 1072 l 344 536 l -12 0 l 146 0 l 463 472 l 596 472 l 913 0 l 1071 0 l 714 536 z "},"Y":{"ha":1092,"x_min":0,"x_max":0,"o":"m 611 461 l 688 461 l 1094 1072 l 936 1072 l 615 593 l 476 593 l 156 1072 l -3 1072 l 404 461 l 479 461 l 479 132 l 281 132 l 281 0 l 813 0 l 813 132 l 611 132 z "},"Ý":{"ha":1092,"x_min":0,"x_max":0,"o":"m 551 1153 l 489 1260 l 790 1438 l 853 1329 z m 611 461 l 688 461 l 1094 1072 l 936 1072 l 615 593 l 476 593 l 156 1072 l -3 1072 l 404 461 l 479 461 l 479 132 l 281 132 l 281 0 l 813 0 l 813 132 l 611 132 z "},"Ÿ":{"ha":1092,"x_min":0,"x_max":0,"o":"m 244 1246 b 340 1342 244 1299 288 1342 b 436 1246 394 1342 436 1299 b 340 1149 436 1192 394 1149 b 244 1246 288 1149 244 1192 z m 646 1246 b 742 1342 646 1299 689 1342 b 839 1246 796 1342 839 1299 b 742 1149 839 1192 796 1149 b 646 1246 689 1149 646 1192 z m 611 461 l 688 461 l 1094 1072 l 936 1072 l 615 593 l 476 593 l 156 1072 l -3 1072 l 404 461 l 479 461 l 479 132 l 281 132 l 281 0 l 813 0 l 813 132 l 611 132 z "},"Z":{"ha":1017,"x_min":0,"x_max":0,"o":"m 989 0 l 32 0 l 32 304 l 856 840 l 856 940 l 33 940 l 33 1072 l 988 1072 l 988 769 l 164 233 l 164 132 l 989 132 z "},"Ž":{"ha":1017,"x_min":0,"x_max":0,"o":"m 747 1414 l 808 1304 l 492 1128 l 176 1304 l 236 1414 l 492 1271 z m 989 0 l 32 0 l 32 304 l 856 840 l 856 940 l 33 940 l 33 1072 l 988 1072 l 988 769 l 164 233 l 164 132 l 989 132 z "},"a":{"ha":1106,"x_min":0,"x_max":0,"o":"m 1000 392 b 556 778 1000 657 865 778 b 132 660 381 778 225 715 l 197 553 b 872 469 431 694 843 715 b 67 225 485 503 67 471 b 426 -17 67 57 242 -17 b 875 165 594 -17 738 50 l 875 0 l 1000 0 z m 875 344 b 424 108 739 200 610 108 b 192 225 313 108 192 149 b 601 354 192 331 464 353 b 875 344 674 354 797 350 z "},"á":{"ha":1106,"x_min":0,"x_max":0,"o":"m 561 842 l 499 949 l 800 1126 l 863 1018 z m 1000 392 b 556 778 1000 657 865 778 b 132 660 381 778 225 715 l 197 553 b 872 469 431 694 843 715 b 67 225 485 503 67 471 b 426 -17 67 57 242 -17 b 875 165 594 -17 738 50 l 875 0 l 1000 0 z m 875 344 b 424 108 739 200 610 108 b 192 225 313 108 192 149 b 601 354 192 331 464 353 b 875 344 674 354 797 350 z "},"â":{"ha":1106,"x_min":0,"x_max":0,"o":"m 806 811 l 551 951 l 299 811 l 235 926 l 551 1103 l 869 926 z m 1000 392 b 556 778 1000 657 865 778 b 132 660 381 778 225 715 l 197 553 b 872 469 431 694 843 715 b 67 225 485 503 67 471 b 426 -17 67 57 242 -17 b 875 165 594 -17 738 50 l 875 0 l 1000 0 z m 875 344 b 424 108 739 200 610 108 b 192 225 313 108 192 149 b 601 354 192 331 464 353 b 875 344 674 354 797 350 z "},"ä":{"ha":1106,"x_min":0,"x_max":0,"o":"m 254 935 b 350 1031 254 988 297 1031 b 446 935 404 1031 446 988 b 350 838 446 881 404 838 b 254 935 297 838 254 881 z m 656 935 b 751 1031 656 988 699 1031 b 849 935 806 1031 849 988 b 751 838 849 881 806 838 b 656 935 699 838 656 881 z m 1000 392 b 556 778 1000 657 865 778 b 132 660 381 778 225 715 l 197 553 b 872 469 431 694 843 715 b 67 225 485 503 67 471 b 426 -17 67 57 242 -17 b 875 165 594 -17 738 50 l 875 0 l 1000 0 z m 875 344 b 424 108 739 200 610 108 b 192 225 313 108 192 149 b 601 354 192 331 464 353 b 875 344 674 354 797 350 z "},"à":{"ha":1106,"x_min":0,"x_max":0,"o":"m 563 842 l 261 1018 l 324 1126 l 625 949 z m 1000 392 b 556 778 1000 657 865 778 b 132 660 381 778 225 715 l 197 553 b 872 469 431 694 843 715 b 67 225 485 503 67 471 b 426 -17 67 57 242 -17 b 875 165 594 -17 738 50 l 875 0 l 1000 0 z m 875 344 b 424 108 739 200 610 108 b 192 225 313 108 192 149 b 601 354 192 331 464 353 b 875 344 674 354 797 350 z "},"ā":{"ha":1106,"x_min":0,"x_max":0,"o":"m 833 878 l 256 878 l 256 1003 l 833 1003 z m 1000 392 b 556 778 1000 657 865 778 b 132 660 381 778 225 715 l 197 553 b 872 469 431 694 843 715 b 67 225 485 503 67 471 b 426 -17 67 57 242 -17 b 875 165 594 -17 738 50 l 875 0 l 1000 0 z m 875 344 b 424 108 739 200 610 108 b 192 225 313 108 192 149 b 601 354 192 331 464 353 b 875 344 674 354 797 350 z "},"å":{"ha":1106,"x_min":0,"x_max":0,"o":"m 556 808 b 408 954 475 808 408 874 b 556 1100 408 1035 475 1100 b 701 954 636 1100 701 1035 b 556 808 701 874 636 808 z m 556 1010 b 499 954 525 1010 499 985 b 556 897 499 922 525 897 b 613 954 586 897 613 922 b 556 1010 613 985 586 1010 z m 1000 392 b 556 778 1000 657 865 778 b 132 660 381 778 225 715 l 197 553 b 872 469 431 694 843 715 b 67 225 485 503 67 471 b 426 -17 67 57 242 -17 b 875 165 594 -17 738 50 l 875 0 l 1000 0 z m 875 344 b 424 108 739 200 610 108 b 192 225 313 108 192 149 b 601 354 192 331 464 353 b 875 344 674 354 797 350 z "},"ã":{"ha":1106,"x_min":0,"x_max":0,"o":"m 385 838 l 265 838 b 433 1029 265 946 339 1029 b 576 988 482 1029 531 1008 b 668 958 610 974 646 958 b 717 1031 692 958 717 988 l 836 1031 b 668 838 836 924 761 838 b 528 878 621 838 572 858 b 433 910 493 894 457 910 b 385 838 407 910 385 878 z m 1000 392 b 556 778 1000 657 865 778 b 132 660 381 778 225 715 l 197 553 b 872 469 431 694 843 715 b 67 225 485 503 67 471 b 426 -17 67 57 242 -17 b 875 165 594 -17 738 50 l 875 0 l 1000 0 z m 875 344 b 424 108 739 200 610 108 b 192 225 313 108 192 149 b 601 354 192 331 464 353 b 875 344 674 354 797 350 z "},"æ":{"ha":1858,"x_min":0,"x_max":0,"o":"m 1794 376 b 1333 778 1794 633 1606 778 b 949 618 1163 778 1026 722 b 556 778 883 726 757 778 b 132 660 381 778 225 715 l 197 553 b 872 469 431 694 843 715 b 67 225 485 503 67 471 b 426 -17 67 57 242 -17 b 875 165 594 -17 738 50 l 913 200 b 1333 -17 981 60 1136 -17 b 1692 110 1471 -17 1601 19 l 1601 197 b 1333 108 1544 139 1453 108 b 1004 314 1149 108 1032 182 l 1794 314 z m 1004 439 b 1333 653 1032 571 1149 653 b 1663 439 1519 653 1636 571 z m 424 108 b 192 225 313 108 192 149 b 601 354 192 331 464 353 b 875 344 674 354 797 350 b 424 108 739 200 610 108 z "},"b":{"ha":1135,"x_min":0,"x_max":0,"o":"m 596 778 b 238 665 450 778 324 739 l 238 1072 l 113 1072 l 113 0 l 238 0 l 238 94 b 596 -17 324 21 449 -17 b 1079 381 874 -17 1079 125 b 596 778 1079 638 874 778 z m 596 110 b 240 381 390 110 240 192 b 596 651 240 571 397 651 b 951 381 799 651 951 565 b 596 110 951 190 793 110 z "},"c":{"ha":936,"x_min":0,"x_max":0,"o":"m 531 -17 b 56 376 257 -17 56 124 b 531 778 56 636 251 778 b 878 672 654 778 785 749 l 797 576 b 531 653 732 632 629 653 b 181 376 328 653 181 571 b 531 108 181 192 328 108 b 797 185 624 108 731 128 l 878 89 b 531 -17 789 14 660 -17 z "},"ç":{"ha":936,"x_min":0,"x_max":0,"o":"m 878 89 l 797 185 b 531 108 731 128 624 108 b 181 376 328 108 181 192 b 531 653 181 571 328 653 b 797 576 629 653 732 632 l 878 672 b 531 778 785 749 654 778 b 56 376 251 778 56 636 b 479 -15 56 140 232 1 l 479 -140 l 565 -140 b 610 -186 592 -140 610 -158 b 565 -233 610 -214 592 -233 b 517 -186 538 -233 517 -214 l 415 -186 b 564 -335 415 -268 482 -335 b 711 -186 646 -335 711 -268 b 581 -40 711 -114 664 -40 l 581 -15 b 878 89 693 -8 800 24 z "},"d":{"ha":1138,"x_min":0,"x_max":0,"o":"m 897 1072 l 897 665 b 539 778 811 739 685 778 b 56 381 261 778 56 638 b 539 -17 56 125 261 -17 b 897 94 686 -17 811 21 l 897 0 l 1022 0 l 1022 1072 z m 539 110 b 183 381 342 110 183 190 b 539 651 183 565 336 651 b 894 381 738 651 894 571 b 539 110 894 192 744 110 z "},"e":{"ha":1032,"x_min":0,"x_max":0,"o":"m 515 -17 b 56 376 247 -17 56 124 b 515 778 56 632 239 778 b 976 376 788 778 976 633 l 976 314 l 186 314 b 515 108 214 182 331 108 b 783 197 635 108 726 139 l 874 110 b 515 -17 783 19 653 -17 z m 186 439 l 844 439 b 515 653 818 571 701 653 b 186 439 331 653 214 571 z "},"é":{"ha":1032,"x_min":0,"x_max":0,"o":"m 550 842 l 488 949 l 789 1126 l 851 1018 z m 515 -17 b 56 376 247 -17 56 124 b 515 778 56 632 239 778 b 976 376 788 778 976 633 l 976 314 l 186 314 b 515 108 214 182 331 108 b 783 197 635 108 726 139 l 874 110 b 515 -17 783 19 653 -17 z m 186 439 l 844 439 b 515 653 818 571 701 653 b 186 439 331 653 214 571 z "},"ê":{"ha":1032,"x_min":0,"x_max":0,"o":"m 794 811 l 540 951 l 288 811 l 224 926 l 540 1103 l 858 926 z m 515 -17 b 56 376 247 -17 56 124 b 515 778 56 632 239 778 b 976 376 788 778 976 633 l 976 314 l 186 314 b 515 108 214 182 331 108 b 783 197 635 108 726 139 l 874 110 b 515 -17 783 19 653 -17 z m 186 439 l 844 439 b 515 653 818 571 701 653 b 186 439 331 653 214 571 z "},"ë":{"ha":1032,"x_min":0,"x_max":0,"o":"m 243 935 b 339 1031 243 988 286 1031 b 435 935 393 1031 435 988 b 339 838 435 881 393 838 b 243 935 286 838 243 881 z m 644 935 b 740 1031 644 988 688 1031 b 838 935 794 1031 838 988 b 740 838 838 881 794 838 b 644 935 688 838 644 881 z m 515 -17 b 56 376 247 -17 56 124 b 515 778 56 632 239 778 b 976 376 788 778 976 633 l 976 314 l 186 314 b 515 108 214 182 331 108 b 783 197 635 108 726 139 l 874 110 b 515 -17 783 19 653 -17 z m 186 439 l 844 439 b 515 653 818 571 701 653 b 186 439 331 653 214 571 z "},"è":{"ha":1032,"x_min":0,"x_max":0,"o":"m 551 842 l 250 1018 l 313 1126 l 614 949 z m 515 -17 b 56 376 247 -17 56 124 b 515 778 56 632 239 778 b 976 376 788 778 976 633 l 976 314 l 186 314 b 515 108 214 182 331 108 b 783 197 635 108 726 139 l 874 110 b 515 -17 783 19 653 -17 z m 186 439 l 844 439 b 515 653 818 571 701 653 b 186 439 331 653 214 571 z "},"ē":{"ha":1032,"x_min":0,"x_max":0,"o":"m 822 878 l 244 878 l 244 1003 l 822 1003 z m 515 -17 b 56 376 247 -17 56 124 b 515 778 56 632 239 778 b 976 376 788 778 976 633 l 976 314 l 186 314 b 515 108 214 182 331 108 b 783 197 635 108 726 139 l 874 110 b 515 -17 783 19 653 -17 z m 186 439 l 844 439 b 515 653 818 571 701 653 b 186 439 331 653 214 571 z "},"f":{"ha":1001,"x_min":0,"x_max":0,"o":"m 542 969 b 932 847 636 969 767 956 l 1001 953 b 542 1094 857 1046 711 1096 b 153 761 318 1092 149 989 l -15 761 l -15 636 l 153 636 l 153 0 l 278 0 l 278 636 l 676 636 l 676 761 l 278 761 b 542 969 275 922 399 967 z "},"g":{"ha":1046,"x_min":0,"x_max":0,"o":"m 940 761 l 940 665 b 582 778 854 739 728 778 b 99 381 304 778 99 639 b 582 -17 99 122 301 -17 b 940 96 728 -17 854 22 l 940 89 b 536 -214 940 -101 750 -214 b 114 -37 361 -214 218 -164 l 17 -118 b 536 -339 150 -275 322 -339 b 1065 89 829 -339 1065 -167 l 1065 761 z m 582 110 b 226 381 376 110 226 192 b 582 651 226 571 383 651 b 938 381 785 651 938 565 b 582 110 938 190 779 110 z "},"h":{"ha":1071,"x_min":0,"x_max":0,"o":"m 965 431 b 619 778 965 629 813 778 b 238 593 486 778 360 699 l 238 1072 l 113 1072 l 113 0 l 238 0 l 238 424 b 619 653 394 572 501 653 b 840 431 740 653 840 564 l 840 0 l 965 0 z "},"i":{"ha":379,"x_min":0,"x_max":0,"o":"m 99 994 b 193 1089 99 1047 140 1089 b 286 994 244 1089 286 1047 b 193 901 286 943 244 901 b 99 994 140 901 99 943 z m 254 0 l 129 0 l 129 761 l 254 761 z "},"í":{"ha":278,"x_min":0,"x_max":0,"o":"m 161 842 l 99 949 l 400 1126 l 463 1018 z m 226 0 l 101 0 l 101 761 l 226 761 z "},"î":{"ha":281,"x_min":0,"x_max":0,"o":"m 401 811 l 147 951 l -106 811 l -169 926 l 147 1103 l 465 926 z m 211 0 l 86 0 l 86 761 l 211 761 z "},"ï":{"ha":421,"x_min":0,"x_max":0,"o":"m -81 935 b 15 1031 -81 988 -37 1031 b 111 935 69 1031 111 988 b 15 838 111 881 69 838 b -81 935 -37 838 -81 881 z m 321 935 b 417 1031 321 988 364 1031 b 514 935 471 1031 514 988 b 417 838 514 881 471 838 b 321 935 364 838 321 881 z m 286 0 l 161 0 l 161 761 l 286 761 z "},"ì":{"ha":285,"x_min":0,"x_max":0,"o":"m 132 842 l -169 1018 l -107 1126 l 194 949 z m 201 0 l 76 0 l 76 761 l 201 761 z "},"ī":{"ha":246,"x_min":0,"x_max":0,"o":"m 418 878 l -160 878 l -160 1003 l 418 1003 z m 193 0 l 68 0 l 68 761 l 193 761 z "},"ĩ":{"ha":258,"x_min":0,"x_max":0,"o":"m -33 838 l -153 838 b 15 1029 -153 946 -79 1029 b 158 988 64 1029 113 1008 b 250 958 192 974 228 958 b 299 1031 274 958 299 988 l 418 1031 b 250 838 418 924 343 838 b 110 878 203 838 154 858 b 15 910 75 894 39 910 b -33 838 -11 910 -33 878 z m 213 0 l 88 0 l 88 761 l 213 761 z "},"j":{"ha":657,"x_min":0,"x_max":0,"o":"m 378 994 b 472 1089 378 1047 419 1089 b 565 994 524 1089 565 1047 b 472 901 565 943 524 901 b 378 994 419 901 378 943 z m 215 -342 b -106 -60 56 -342 -85 -229 l 18 -44 b 215 -217 31 -149 117 -217 b 411 1 344 -217 411 -139 l 411 761 l 536 761 l 536 1 b 215 -342 536 -251 371 -342 z "},"k":{"ha":999,"x_min":0,"x_max":0,"o":"m 843 0 l 990 0 l 696 469 l 1006 654 l 943 761 l 238 343 l 238 1072 l 113 1072 l 113 0 l 238 0 l 238 197 l 588 406 z "},"l":{"ha":357,"x_min":0,"x_max":0,"o":"m 240 0 l 115 0 l 115 1072 l 240 1072 z "},"m":{"ha":1613,"x_min":0,"x_max":0,"o":"m 1506 442 b 1179 778 1506 632 1363 778 b 839 585 1044 778 944 701 b 542 778 788 700 665 778 b 238 625 425 778 325 717 l 238 761 l 113 761 l 113 0 l 238 0 l 238 438 b 542 653 369 597 446 653 b 742 442 653 653 742 567 l 742 0 l 867 0 l 867 426 b 1179 653 1004 594 1082 653 b 1381 442 1290 653 1381 567 l 1381 0 l 1506 0 z "},"n":{"ha":1072,"x_min":0,"x_max":0,"o":"m 113 0 l 238 0 l 238 424 b 619 653 394 572 501 653 b 840 431 740 653 840 564 l 840 0 l 965 0 l 965 431 b 619 778 965 629 813 778 b 238 593 486 778 360 699 l 238 761 l 113 761 z "},"o":{"ha":1079,"x_min":0,"x_max":0,"o":"m 539 -17 b 56 381 258 -17 56 122 b 539 778 56 639 261 778 b 1022 381 817 778 1022 638 b 539 -17 1022 125 817 -17 z m 539 653 b 181 381 340 653 181 571 b 539 108 181 192 333 108 b 897 381 736 108 897 190 b 539 653 897 565 742 653 z "},"ó":{"ha":1079,"x_min":0,"x_max":0,"o":"m 544 842 l 482 949 l 783 1126 l 846 1018 z m 539 -17 b 56 381 258 -17 56 122 b 539 778 56 639 261 778 b 1022 381 817 778 1022 638 b 539 -17 1022 125 817 -17 z m 539 653 b 181 381 340 653 181 571 b 539 108 181 192 333 108 b 897 381 736 108 897 190 b 539 653 897 565 742 653 z "},"ô":{"ha":1079,"x_min":0,"x_max":0,"o":"m 789 811 l 535 951 l 282 811 l 218 926 l 535 1103 l 853 926 z m 539 -17 b 56 381 258 -17 56 122 b 539 778 56 639 261 778 b 1022 381 817 778 1022 638 b 539 -17 1022 125 817 -17 z m 539 653 b 181 381 340 653 181 571 b 539 108 181 192 333 108 b 897 381 736 108 897 190 b 539 653 897 565 742 653 z "},"ö":{"ha":1079,"x_min":0,"x_max":0,"o":"m 238 935 b 333 1031 238 988 281 1031 b 429 935 388 1031 429 988 b 333 838 429 881 388 838 b 238 935 281 838 238 881 z m 639 935 b 735 1031 639 988 682 1031 b 832 935 789 1031 832 988 b 735 838 832 881 789 838 b 639 935 682 838 639 881 z m 539 -17 b 56 381 258 -17 56 122 b 539 778 56 639 261 778 b 1022 381 817 778 1022 638 b 539 -17 1022 125 817 -17 z m 539 653 b 181 381 340 653 181 571 b 539 108 181 192 333 108 b 897 381 736 108 897 190 b 539 653 897 565 742 653 z "},"ò":{"ha":1079,"x_min":0,"x_max":0,"o":"m 546 842 l 244 1018 l 307 1126 l 608 949 z m 539 -17 b 56 381 258 -17 56 122 b 539 778 56 639 261 778 b 1022 381 817 778 1022 638 b 539 -17 1022 125 817 -17 z m 539 653 b 181 381 340 653 181 571 b 539 108 181 192 333 108 b 897 381 736 108 897 190 b 539 653 897 565 742 653 z "},"ō":{"ha":1079,"x_min":0,"x_max":0,"o":"m 817 878 l 239 878 l 239 1003 l 817 1003 z m 539 -17 b 56 381 258 -17 56 122 b 539 778 56 639 261 778 b 1022 381 817 778 1022 638 b 539 -17 1022 125 817 -17 z m 539 653 b 181 381 340 653 181 571 b 539 108 181 192 333 108 b 897 381 736 108 897 190 b 539 653 897 565 742 653 z "},"ø":{"ha":1050,"x_min":0,"x_max":0,"o":"m 875 672 l 958 761 l 796 761 l 771 733 b 525 778 700 763 617 778 b 42 381 247 778 42 639 b 174 89 42 254 90 156 l 92 0 l 254 0 l 279 28 b 525 -17 350 -1 433 -17 b 1008 381 803 -17 1008 125 b 875 672 1008 507 958 604 z m 167 381 b 525 653 167 571 326 653 b 678 633 581 653 632 646 l 258 181 b 167 381 201 225 167 292 z m 525 108 b 372 126 469 108 418 114 l 790 579 b 883 381 849 533 883 468 b 525 108 883 190 722 108 z "},"õ":{"ha":1079,"x_min":0,"x_max":0,"o":"m 368 838 l 249 838 b 417 1029 249 946 322 1029 b 560 988 465 1029 514 1008 b 651 958 593 974 629 958 b 700 1031 675 958 700 988 l 819 1031 b 651 838 819 924 744 838 b 511 878 604 838 556 858 b 417 910 476 894 440 910 b 368 838 390 910 368 878 z m 539 -17 b 56 381 258 -17 56 122 b 539 778 56 639 261 778 b 1022 381 817 778 1022 638 b 539 -17 1022 125 817 -17 z m 539 653 b 181 381 340 653 181 571 b 539 108 181 192 333 108 b 897 381 736 108 897 190 b 539 653 897 565 742 653 z "},"œ":{"ha":1882,"x_min":0,"x_max":0,"o":"m 1818 376 b 1357 778 1818 633 1629 778 b 958 599 1175 778 1033 715 b 539 778 876 715 724 778 b 56 381 261 778 56 639 b 539 -17 56 122 258 -17 b 957 161 722 -17 875 46 b 1357 -17 1033 46 1178 -17 b 1715 110 1494 -17 1625 19 l 1625 197 b 1357 108 1568 139 1476 108 b 1028 314 1172 108 1056 182 l 1818 314 z m 539 108 b 181 381 333 108 181 192 b 539 653 181 571 340 653 b 897 381 742 653 897 565 b 539 108 897 190 736 108 z m 1028 439 b 1357 653 1056 571 1172 653 b 1686 439 1543 653 1660 571 z "},"p":{"ha":1135,"x_min":0,"x_max":0,"o":"m 596 778 b 238 665 450 778 324 739 l 238 761 l 113 761 l 113 -318 l 238 -318 l 238 94 b 596 -17 324 21 449 -17 b 1079 381 874 -17 1079 125 b 596 778 1079 638 874 778 z m 596 110 b 240 381 390 110 240 192 b 596 651 240 571 397 651 b 951 381 799 651 951 565 b 596 110 951 190 793 110 z "},"q":{"ha":1135,"x_min":0,"x_max":0,"o":"m 897 761 l 897 665 b 539 778 811 739 685 778 b 56 381 261 778 56 638 b 539 -17 56 125 261 -17 b 897 94 686 -17 811 21 l 897 -318 l 1022 -318 l 1022 761 z m 539 110 b 183 381 342 110 183 190 b 539 651 183 565 336 651 b 894 381 738 651 894 571 b 539 110 894 192 744 110 z "},"r":{"ha":869,"x_min":0,"x_max":0,"o":"m 844 489 b 533 778 824 658 699 778 b 238 639 418 778 321 726 l 238 761 l 113 761 l 113 0 l 238 0 l 238 436 b 533 653 319 563 408 653 b 719 475 631 653 707 583 z "},"s":{"ha":1047,"x_min":0,"x_max":0,"o":"m 554 -17 b 25 204 363 -17 153 54 l 119 286 b 554 108 222 168 396 108 b 874 218 685 108 874 143 b 469 333 874 313 643 322 b 99 549 204 356 99 408 b 526 778 99 719 342 788 b 926 628 636 775 793 744 l 843 535 b 522 654 739 626 611 650 b 224 549 401 658 224 621 b 478 458 224 494 289 471 b 999 218 729 442 999 426 b 554 -17 999 44 763 -17 z "},"š":{"ha":1047,"x_min":0,"x_max":0,"o":"m 772 1103 l 833 993 l 517 817 l 201 993 l 261 1103 l 517 960 z m 554 -17 b 25 204 363 -17 153 54 l 119 286 b 554 108 222 168 396 108 b 874 218 685 108 874 143 b 469 333 874 313 643 322 b 99 549 204 356 99 408 b 526 778 99 719 342 788 b 926 628 636 775 793 744 l 843 535 b 522 654 739 626 611 650 b 224 549 401 658 224 621 b 478 458 224 494 289 471 b 999 218 729 442 999 426 b 554 -17 999 44 763 -17 z "},"ß":{"ha":1056,"x_min":0,"x_max":0,"o":"m 779 568 b 874 789 842 619 874 696 b 414 1072 874 1033 665 1072 l 117 1072 l 117 -157 l 242 -157 l 242 949 l 414 947 b 749 789 579 947 749 939 b 413 604 749 626 606 604 l 333 604 l 333 479 l 413 479 b 876 303 610 479 876 475 b 444 125 876 142 708 125 l 333 125 l 333 0 l 444 0 b 1008 303 779 -7 1008 35 b 779 568 1008 454 926 532 z "},"t":{"ha":885,"x_min":0,"x_max":0,"o":"m 779 225 b 475 108 682 149 594 108 b 274 289 340 111 272 168 l 274 636 l 672 636 l 672 761 l 274 761 l 274 1072 l 149 1072 l 149 761 l -19 761 l -19 636 l 149 636 l 149 290 b 475 -17 147 96 279 -17 b 857 128 618 -17 733 28 z "},"u":{"ha":1069,"x_min":0,"x_max":0,"o":"m 104 331 b 450 -17 104 132 257 -17 b 832 168 583 -17 710 63 l 832 0 l 957 0 l 957 761 l 832 761 l 832 338 b 450 108 675 189 568 108 b 229 331 329 108 229 197 l 229 761 l 104 761 z "},"ú":{"ha":1069,"x_min":0,"x_max":0,"o":"m 536 842 l 474 949 l 775 1126 l 838 1018 z m 104 331 b 450 -17 104 132 257 -17 b 832 168 583 -17 710 63 l 832 0 l 957 0 l 957 761 l 832 761 l 832 338 b 450 108 675 189 568 108 b 229 331 329 108 229 197 l 229 761 l 104 761 z "},"û":{"ha":1069,"x_min":0,"x_max":0,"o":"m 781 811 l 526 951 l 274 811 l 210 926 l 526 1103 l 844 926 z m 104 331 b 450 -17 104 132 257 -17 b 832 168 583 -17 710 63 l 832 0 l 957 0 l 957 761 l 832 761 l 832 338 b 450 108 675 189 568 108 b 229 331 329 108 229 197 l 229 761 l 104 761 z "},"ü":{"ha":1069,"x_min":0,"x_max":0,"o":"m 229 935 b 325 1031 229 988 272 1031 b 421 935 379 1031 421 988 b 325 838 421 881 379 838 b 229 935 272 838 229 881 z m 631 935 b 726 1031 631 988 674 1031 b 824 935 781 1031 824 988 b 726 838 824 881 781 838 b 631 935 674 838 631 881 z m 104 331 b 450 -17 104 132 257 -17 b 832 168 583 -17 710 63 l 832 0 l 957 0 l 957 761 l 832 761 l 832 338 b 450 108 675 189 568 108 b 229 331 329 108 229 197 l 229 761 l 104 761 z "},"ù":{"ha":1069,"x_min":0,"x_max":0,"o":"m 538 842 l 236 1018 l 299 1126 l 600 949 z m 104 331 b 450 -17 104 132 257 -17 b 832 168 583 -17 710 63 l 832 0 l 957 0 l 957 761 l 832 761 l 832 338 b 450 108 675 189 568 108 b 229 331 329 108 229 197 l 229 761 l 104 761 z "},"ū":{"ha":1069,"x_min":0,"x_max":0,"o":"m 808 878 l 231 878 l 231 1003 l 808 1003 z m 104 331 b 450 -17 104 132 257 -17 b 832 168 583 -17 710 63 l 832 0 l 957 0 l 957 761 l 832 761 l 832 338 b 450 108 675 189 568 108 b 229 331 329 108 229 197 l 229 761 l 104 761 z "},"v":{"ha":938,"x_min":0,"x_max":0,"o":"m 547 0 l 943 761 l 801 761 l 476 135 l 151 761 l 10 761 l 406 0 z "},"w":{"ha":1436,"x_min":0,"x_max":0,"o":"m 983 0 l 1088 0 l 1421 761 l 1285 761 l 1036 193 l 788 761 l 650 761 l 401 193 l 153 761 l 17 761 l 349 0 l 453 0 l 718 606 z "},"x":{"ha":926,"x_min":0,"x_max":0,"o":"m -1 0 l 175 0 l 460 288 l 746 0 l 922 0 l 549 376 l 928 761 l 753 761 l 460 465 l 168 761 l -7 761 l 372 376 z "},"y":{"ha":1000,"x_min":0,"x_max":0,"o":"m 865 761 l 558 171 l 251 761 l 111 761 l 488 35 b 326 -203 393 -140 371 -182 b 121 -94 256 -240 164 -185 l 8 -149 b 279 -339 61 -260 163 -339 b 558 -99 415 -339 476 -247 l 1006 761 z "},"ý":{"ha":1000,"x_min":0,"x_max":0,"o":"m 556 842 l 493 949 l 794 1126 l 857 1018 z m 865 761 l 558 171 l 251 761 l 111 761 l 488 35 b 326 -203 393 -140 371 -182 b 121 -94 256 -240 164 -185 l 8 -149 b 279 -339 61 -260 163 -339 b 558 -99 415 -339 476 -247 l 1006 761 z "},"ÿ":{"ha":1000,"x_min":0,"x_max":0,"o":"m 257 935 b 353 1031 257 988 300 1031 b 449 935 407 1031 449 988 b 353 838 449 881 407 838 b 257 935 300 838 257 881 z m 658 935 b 754 1031 658 988 701 1031 b 851 935 808 1031 851 988 b 754 838 851 881 808 838 b 658 935 701 838 658 881 z m 865 761 l 558 171 l 251 761 l 111 761 l 488 35 b 326 -203 393 -140 371 -182 b 121 -94 256 -240 164 -185 l 8 -149 b 279 -339 61 -260 163 -339 b 558 -99 415 -339 476 -247 l 1006 761 z "},"z":{"ha":921,"x_min":0,"x_max":0,"o":"m 900 761 l 28 761 l 28 636 l 707 636 l 28 140 l 28 0 l 900 0 l 900 125 l 221 125 l 900 621 z "},"ž":{"ha":921,"x_min":0,"x_max":0,"o":"m 721 1103 l 782 993 l 465 817 l 150 993 l 210 1103 l 465 960 z m 900 761 l 28 761 l 28 636 l 707 636 l 28 140 l 28 0 l 900 0 l 900 125 l 221 125 l 900 621 z "},"ª":{"ha":590,"x_min":0,"x_max":0,"o":"m 522 988 b 310 1075 479 1044 404 1075 b 79 1001 221 1075 129 1039 l 135 922 b 310 978 172 949 243 978 b 453 904 397 978 438 958 b 335 908 421 906 379 908 b 18 760 179 907 18 878 b 243 604 18 669 128 604 b 458 699 321 604 393 636 l 458 621 l 556 621 l 556 844 b 522 988 556 865 557 944 z m 242 701 b 115 760 192 700 115 729 b 458 808 115 806 356 821 b 242 701 408 746 314 701 z "},"¹":{"ha":281,"x_min":0,"x_max":0,"o":"m 194 718 l 194 1072 l 13 1072 l 13 975 l 97 975 l 97 718 l 13 718 l 13 621 l 276 621 l 276 718 z "},"²":{"ha":471,"x_min":0,"x_max":0,"o":"m 396 621 l 31 621 l 31 749 b 211 800 107 764 161 779 b 332 910 257 819 332 858 b 233 978 332 961 290 978 b 119 910 163 978 119 964 l 22 910 b 233 1075 22 1019 103 1075 b 429 910 349 1075 429 1014 b 365 781 429 863 407 818 b 267 718 340 758 307 738 l 396 718 z "},"³":{"ha":471,"x_min":0,"x_max":0,"o":"m 239 621 b 22 807 108 621 22 685 l 119 807 b 239 718 119 740 163 718 b 346 772 283 718 346 732 b 165 835 346 819 313 835 l 165 924 l 321 960 l 321 975 l 71 975 l 71 1072 l 418 1072 l 418 907 l 339 893 b 443 772 411 879 443 836 b 239 621 443 679 350 621 z "},".":{"ha":413,"x_min":0,"x_max":0,"o":"m 113 76 b 207 171 113 129 154 171 b 300 76 258 171 300 129 b 207 -17 300 25 258 -17 b 113 76 154 -17 113 25 z "},",":{"ha":419,"x_min":0,"x_max":0,"o":"m 208 -171 l 99 -111 l 204 86 l 314 26 z "},":":{"ha":431,"x_min":0,"x_max":0,"o":"m 119 622 b 213 715 119 674 161 715 b 307 622 264 715 307 674 b 213 529 307 571 264 529 b 119 622 161 529 119 571 z m 119 76 b 213 169 119 128 161 169 b 307 76 264 169 307 128 b 213 -17 307 25 264 -17 b 119 76 161 -17 119 25 z "},";":{"ha":440,"x_min":0,"x_max":0,"o":"m 110 622 b 203 715 110 674 151 715 b 297 622 254 715 297 674 b 203 529 297 571 254 529 b 110 622 151 529 110 571 z m 213 -171 l 103 -111 l 208 86 l 318 26 z "},"…":{"ha":983,"x_min":0,"x_max":0,"o":"m 117 76 b 211 171 117 129 158 171 b 304 76 263 171 304 129 b 211 -17 304 25 263 -17 b 117 76 158 -17 117 25 z m 397 76 b 492 171 397 129 439 171 b 585 76 543 171 585 129 b 492 -17 585 25 543 -17 b 397 76 439 -17 397 25 z m 678 76 b 772 171 678 129 719 171 b 865 76 824 171 865 129 b 772 -17 865 25 824 -17 b 678 76 719 -17 678 25 z "},"!":{"ha":472,"x_min":0,"x_max":0,"o":"m 288 267 l 163 267 l 163 1072 l 288 1072 z m 132 76 b 225 169 132 128 174 169 b 318 76 276 169 318 128 b 225 -17 318 25 276 -17 b 132 76 174 -17 132 25 z "},"¡":{"ha":472,"x_min":0,"x_max":0,"o":"m 135 811 b 228 904 135 863 176 904 b 321 811 279 904 321 863 b 228 718 321 760 279 718 b 135 811 176 718 135 760 z m 290 621 l 290 -185 l 165 -185 l 165 621 z "},"?":{"ha":1213,"x_min":0,"x_max":0,"o":"m 631 243 l 499 243 b 578 446 500 319 528 389 b 753 564 622 496 682 536 b 956 765 908 621 956 657 b 867 910 956 824 926 872 b 592 974 800 950 703 974 b 374 915 513 974 432 951 b 246 714 301 869 258 801 l 115 733 b 303 1026 133 860 199 961 b 592 1106 413 1094 531 1106 b 936 1021 729 1106 849 1076 b 1088 765 1035 960 1088 869 b 1001 547 1088 672 1060 601 b 800 440 953 503 888 474 b 678 360 749 421 707 393 b 631 243 647 325 632 286 z m 471 76 b 564 169 471 128 513 169 b 657 76 615 169 657 128 b 564 -17 657 25 615 -17 b 471 76 513 -17 471 25 z "},"¿":{"ha":1199,"x_min":0,"x_max":0,"o":"m 797 811 b 704 718 797 760 756 718 b 611 811 653 718 611 760 b 704 904 611 863 653 904 b 797 811 756 904 797 863 z m 638 644 l 769 644 b 690 442 768 568 740 499 b 515 324 646 392 586 351 b 313 122 360 267 313 231 b 401 -22 313 64 342 15 b 676 -86 468 -62 565 -86 b 894 -28 756 -86 836 -64 b 1022 174 967 18 1010 86 l 1153 154 b 965 -139 1135 28 1069 -74 b 676 -218 856 -207 738 -218 b 332 -133 539 -218 419 -189 b 181 122 233 -72 181 18 b 267 340 181 215 208 286 b 468 447 315 385 381 414 b 590 528 519 467 561 494 b 638 644 621 563 636 601 z "},"•":{"ha":436,"x_min":0,"x_max":0,"o":"m 117 410 b 218 511 117 467 161 511 b 318 410 274 511 318 467 b 218 310 318 356 274 310 b 117 410 161 310 117 356 z "},"*":{"ha":669,"x_min":0,"x_max":0,"o":"m 594 890 l 525 996 l 397 911 l 397 1064 l 272 1064 l 272 911 l 144 996 l 76 890 l 222 794 l 76 697 l 144 593 l 272 678 l 272 525 l 397 525 l 397 678 l 525 593 l 594 697 l 449 794 z "},"#":{"ha":1081,"x_min":0,"x_max":0,"o":"m 1039 686 l 1039 811 l 868 811 l 932 1072 l 800 1072 l 736 811 l 488 811 l 550 1072 l 418 1072 l 356 811 l 46 811 l 46 686 l 324 686 l 263 429 l 46 429 l 46 304 l 231 304 l 158 0 l 290 0 l 363 304 l 611 304 l 540 0 l 672 0 l 743 304 l 1039 304 l 1039 429 l 775 429 l 836 686 z m 643 429 l 394 429 l 456 686 l 704 686 z "},"/":{"ha":582,"x_min":0,"x_max":0,"o":"m 129 -117 l -3 -117 l 456 1164 l 588 1164 z "},"\\":{"ha":579,"x_min":0,"x_max":0,"o":"m 450 -117 l -8 1164 l 124 1164 l 582 -117 z "},"(":{"ha":469,"x_min":0,"x_max":0,"o":"m 404 1106 l 292 1169 b 113 547 188 981 113 790 b 292 -76 113 303 188 113 l 404 -11 b 238 547 333 99 238 331 b 404 1106 238 764 333 996 z "},")":{"ha":468,"x_min":0,"x_max":0,"o":"m 178 1169 l 65 1106 b 232 547 136 996 232 764 b 65 -11 232 331 136 99 l 178 -76 b 357 547 282 113 357 303 b 178 1169 357 790 282 981 z "},"{":{"ha":417,"x_min":0,"x_max":0,"o":"m 208 -40 b 200 42 190 -22 196 19 l 251 307 b 221 479 265 378 256 436 b 214 486 218 482 215 483 b 221 494 215 489 218 492 b 251 667 256 536 265 594 l 201 929 l 200 931 b 208 1014 196 954 190 996 b 336 1024 228 1033 281 1038 l 367 1144 b 121 1103 278 1165 181 1163 b 78 906 71 1053 63 982 l 129 643 b 13 549 143 565 118 549 l 13 424 b 129 331 104 424 149 413 l 78 68 b 121 -131 64 -4 68 -78 b 367 -172 181 -186 279 -193 l 336 -50 b 208 -40 281 -64 228 -60 z "},"}":{"ha":418,"x_min":0,"x_max":0,"o":"m 210 -40 b 82 -50 190 -60 138 -64 l 51 -172 b 297 -131 139 -193 238 -186 b 340 68 350 -78 354 -4 l 289 331 b 406 424 269 413 314 424 l 406 549 b 289 643 300 549 275 565 l 340 906 b 297 1103 356 982 347 1053 b 51 1144 238 1163 140 1165 l 82 1024 b 210 1014 138 1038 190 1033 b 218 931 228 996 222 954 l 217 929 l 167 667 b 197 494 153 594 163 536 b 204 486 200 492 203 489 b 197 479 203 483 200 482 b 167 307 163 436 153 378 l 218 42 b 210 -40 222 19 228 -22 z "},"[":{"ha":474,"x_min":0,"x_max":0,"o":"m 408 -176 l 156 -176 l 156 1150 l 408 1150 l 408 1025 l 281 1025 l 281 -51 l 408 -51 z "},"]":{"ha":474,"x_min":0,"x_max":0,"o":"m 67 -176 l 67 -51 l 194 -51 l 194 1025 l 67 1025 l 67 1150 l 319 1150 l 319 -176 z "},"-":{"ha":801,"x_min":0,"x_max":0,"o":"m 710 354 l 94 354 l 94 479 l 710 479 z "},"–":{"ha":910,"x_min":0,"x_max":0,"o":"m 815 354 l 67 354 l 67 479 l 815 479 z "},"—":{"ha":1393,"x_min":0,"x_max":0,"o":"m 1300 354 l 94 354 l 94 479 l 1300 479 z "},"_":{"ha":901,"x_min":0,"x_max":0,"o":"m 863 -125 l 40 -125 l 40 0 l 863 0 z "},"‚":{"ha":442,"x_min":0,"x_max":0,"o":"m 214 -171 l 104 -111 l 210 86 l 319 26 z "},"„":{"ha":667,"x_min":0,"x_max":0,"o":"m 228 -171 l 118 -111 l 224 86 l 333 26 z m 439 -171 l 329 -111 l 435 86 l 544 26 z "},"“":{"ha":658,"x_min":0,"x_max":0,"o":"m 222 821 l 117 1018 l 226 1078 l 332 881 z m 433 821 l 328 1018 l 438 1078 l 543 881 z "},"”":{"ha":657,"x_min":0,"x_max":0,"o":"m 229 821 l 119 881 l 225 1078 l 335 1018 z m 440 821 l 331 881 l 436 1078 l 546 1018 z "},"‘":{"ha":446,"x_min":0,"x_max":0,"o":"m 222 821 l 117 1018 l 226 1078 l 332 881 z "},"’":{"ha":446,"x_min":0,"x_max":0,"o":"m 231 821 l 121 881 l 226 1078 l 336 1018 z "},"«":{"ha":1488,"x_min":0,"x_max":0,"o":"m 822 124 l 97 460 l 97 579 l 822 914 l 878 794 l 282 519 l 878 244 z m 1358 124 l 633 460 l 633 579 l 1358 914 l 1414 794 l 818 519 l 1414 244 z "},"»":{"ha":1488,"x_min":0,"x_max":0,"o":"m 135 124 l 79 244 l 675 519 l 79 794 l 135 914 l 860 579 l 860 460 z m 671 124 l 615 244 l 1211 519 l 615 794 l 671 914 l 1396 579 l 1396 460 z "},"\"":{"ha":540,"x_min":0,"x_max":0,"o":"m 167 821 l 57 881 l 163 1078 l 272 1018 z m 378 821 l 268 881 l 374 1078 l 483 1018 z "},"¢":{"ha":932,"x_min":0,"x_max":0,"o":"m 797 185 b 583 111 743 139 663 117 l 583 651 b 797 576 664 644 743 622 l 878 672 b 583 776 797 738 690 768 l 583 950 l 451 950 l 451 774 b 56 376 215 749 56 611 b 451 -12 56 149 219 13 l 451 -189 l 583 -189 l 583 -15 b 878 89 694 -7 801 24 z m 181 376 b 451 649 181 544 290 629 l 451 113 b 181 376 290 133 181 217 z "},"$":{"ha":1188,"x_min":0,"x_max":0,"o":"m 1136 308 b 664 617 1136 540 921 590 l 664 946 b 956 778 776 925 879 867 l 1056 865 b 664 1079 931 1008 782 1061 l 664 1249 l 539 1249 l 539 1086 b 110 779 311 1079 110 976 b 528 497 110 564 283 519 b 539 496 532 497 535 497 l 539 121 b 138 369 375 144 232 229 l 28 297 b 539 -11 147 117 333 13 l 539 -201 l 664 -201 l 664 -17 b 1136 308 910 -7 1136 100 z m 242 779 b 539 954 242 894 392 949 l 539 629 b 242 779 354 646 242 660 z m 664 117 l 664 486 b 1004 308 860 467 1004 436 b 664 117 1004 181 824 124 z "},"€":{"ha":1315,"x_min":0,"x_max":0,"o":"m 1140 354 b 750 115 1082 197 947 115 b 360 353 550 115 415 203 l 992 353 l 992 485 l 331 485 b 328 540 329 503 328 521 b 329 583 328 556 328 569 l 992 583 l 992 715 l 357 715 b 750 957 413 868 550 957 b 1135 732 926 957 1072 886 l 1257 782 b 750 1089 1172 988 982 1089 b 218 715 471 1089 281 943 l -1 715 l -1 583 l 197 583 b 196 540 196 569 196 554 b 197 485 196 521 196 503 l -1 485 l -1 353 l 221 353 b 750 -17 285 124 475 -17 b 1264 307 996 -17 1185 96 z "},"£":{"ha":979,"x_min":0,"x_max":0,"o":"m 256 443 l 721 443 l 721 568 l 257 568 l 257 675 b 540 964 257 867 349 963 b 822 725 708 963 822 888 l 947 725 b 540 1089 947 957 781 1088 b 132 675 279 1088 132 936 l 132 568 l 47 568 l 47 443 l 131 443 b 74 182 131 368 121 264 b 18 117 46 135 18 117 b 49 0 18 117 19 115 l 913 0 l 913 125 l 185 125 b 256 443 238 218 257 335 z "},"¥":{"ha":1154,"x_min":0,"x_max":0,"o":"m 1144 1072 l 989 1072 l 582 518 l 174 1072 l 18 1072 l 458 475 l 85 475 l 85 350 l 519 350 l 519 244 l 85 244 l 85 119 l 519 119 l 519 0 l 644 0 l 644 119 l 1078 119 l 1078 244 l 644 244 l 644 350 l 1078 350 l 1078 475 l 706 475 z "},"+":{"ha":860,"x_min":0,"x_max":0,"o":"m 767 629 l 504 629 l 504 892 l 372 892 l 372 629 l 108 629 l 108 497 l 372 497 l 372 235 l 504 235 l 504 497 l 767 497 z "},"−":{"ha":776,"x_min":0,"x_max":0,"o":"m 721 497 l 63 497 l 63 629 l 721 629 z "},"×":{"ha":783,"x_min":0,"x_max":0,"o":"m 660 749 l 565 843 l 379 657 l 193 843 l 100 750 l 286 564 l 101 378 l 194 285 l 381 469 l 565 285 l 660 378 l 474 564 z "},"÷":{"ha":793,"x_min":0,"x_max":0,"o":"m 308 769 b 401 863 308 821 350 863 b 496 769 453 863 496 821 b 401 676 496 718 453 676 b 308 769 350 676 308 718 z m 731 497 l 72 497 l 72 629 l 731 629 z m 308 358 b 401 451 308 410 350 451 b 496 358 453 451 496 410 b 401 265 496 307 453 265 b 308 358 350 265 308 307 z "},"=":{"ha":854,"x_min":0,"x_max":0,"o":"m 758 597 l 100 597 l 100 729 l 758 729 z m 758 286 l 100 286 l 100 418 l 758 418 z "},">":{"ha":1047,"x_min":0,"x_max":0,"o":"m 206 124 l 150 244 l 746 519 l 150 794 l 206 914 l 931 579 l 931 460 z "},"<":{"ha":1047,"x_min":0,"x_max":0,"o":"m 847 124 l 122 460 l 122 579 l 847 914 l 903 794 l 307 519 l 903 244 z "},"%":{"ha":739,"x_min":0,"x_max":0,"o":"m 207 -139 l 82 -94 l 540 1186 l 664 1142 z m 165 794 b 18 940 85 794 18 860 b 165 1086 18 1021 85 1086 b 311 940 246 1086 311 1021 b 165 794 311 860 246 794 z m 165 996 b 108 940 135 996 108 971 b 165 883 108 908 135 883 b 222 940 196 883 222 908 b 165 996 222 971 196 996 z m 571 -37 b 424 108 490 -37 424 28 b 571 254 424 189 490 254 b 717 108 651 254 717 189 b 571 -37 717 28 651 -37 z m 571 164 b 514 108 540 164 514 139 b 571 51 514 76 540 51 b 628 108 601 51 628 76 b 571 164 628 139 601 164 z "},"↑":{"ha":918,"x_min":0,"x_max":0,"o":"m 624 615 b 522 863 558 682 522 769 l 397 863 b 294 615 397 769 361 682 b 49 514 229 550 142 514 l 49 389 b 233 426 113 389 175 401 b 383 528 289 450 340 485 l 397 542 l 397 0 l 522 0 l 522 540 l 535 528 b 685 426 579 485 629 450 b 869 389 743 401 806 389 l 869 514 b 624 615 776 514 689 550 z "},"→":{"ha":1385,"x_min":0,"x_max":0,"o":"m 1090 575 b 989 821 1025 640 989 728 l 864 821 b 901 636 864 757 876 694 b 1003 486 925 581 958 529 l 1017 472 l 49 472 l 49 347 l 1015 347 l 1003 335 b 901 185 958 290 925 240 b 864 0 876 126 864 64 l 989 0 b 1090 246 989 93 1025 181 b 1336 347 1157 311 1243 347 l 1336 472 b 1090 575 1243 472 1157 508 z "},"↓":{"ha":918,"x_min":0,"x_max":0,"o":"m 685 436 b 535 335 629 413 579 378 l 522 322 l 522 863 l 397 863 l 397 321 l 383 335 b 233 436 340 378 289 413 b 49 474 175 461 113 474 l 49 349 b 294 247 142 349 229 313 b 397 0 361 181 397 93 l 522 0 b 624 247 522 93 558 181 b 869 349 689 313 776 349 l 869 474 b 685 436 806 474 743 461 z "},"←":{"ha":1385,"x_min":0,"x_max":0,"o":"m 1336 472 l 368 472 l 382 486 b 483 636 426 529 460 581 b 521 821 508 694 521 757 l 396 821 b 294 575 396 728 360 640 b 49 472 228 508 142 472 l 49 347 b 294 246 142 347 228 311 b 396 0 360 181 396 93 l 521 0 b 483 185 521 64 508 126 b 382 335 460 240 426 290 l 369 347 l 1336 347 z "},"@":{"ha":1471,"x_min":0,"x_max":0,"o":"m 1389 386 b 1226 801 1389 556 1332 699 b 1019 926 1171 857 1100 899 b 735 971 936 956 840 971 b 450 925 629 971 533 956 b 243 797 369 896 300 853 b 121 606 189 744 149 679 b 82 378 94 536 82 460 b 121 149 82 296 94 218 b 243 -43 149 75 189 11 b 450 -171 300 -99 369 -142 b 735 -217 533 -201 629 -217 l 735 -85 b 494 -47 644 -85 564 -72 b 336 51 432 -24 379 8 b 214 378 256 131 214 243 b 336 704 214 511 256 624 b 494 801 379 746 432 779 b 735 839 564 826 644 839 b 976 803 825 839 907 826 b 1135 707 1039 781 1092 749 b 1257 385 1214 629 1257 518 b 1207 211 1257 353 1250 257 b 1143 186 1190 194 1169 186 b 1076 213 1115 186 1093 194 b 1032 385 1047 243 1032 318 l 1032 690 l 900 690 l 900 647 b 703 713 843 690 774 713 b 469 617 614 713 532 678 b 374 383 407 554 374 471 b 469 151 374 296 407 213 b 703 54 532 89 614 54 b 949 165 793 54 900 101 b 981 122 958 149 968 135 b 1143 54 1022 78 1079 54 b 1301 119 1206 54 1260 76 b 1381 292 1340 160 1368 218 b 1389 386 1389 340 1389 378 z m 703 186 b 506 383 593 186 506 275 b 703 581 506 492 593 581 b 896 385 813 581 896 500 b 703 186 896 263 813 186 z "},"&":{"ha":1217,"x_min":0,"x_max":0,"o":"m 1224 0 l 990 199 b 1153 496 1056 276 1110 374 l 1024 535 b 890 285 989 435 946 350 l 236 843 l 236 950 l 864 950 l 864 1072 l 115 1072 l 115 778 l 233 678 b 181 649 217 669 199 660 b 22 354 107 601 22 511 b 486 -17 22 140 253 -17 b 900 113 640 -17 788 22 l 1033 0 z m 486 115 b 154 354 344 115 154 211 b 253 547 154 436 185 504 b 339 588 281 565 313 579 l 797 200 b 486 115 715 144 613 115 z "},"§":{"ha":1050,"x_min":0,"x_max":0,"o":"m 858 215 b 943 392 914 257 943 321 b 482 649 943 596 749 626 b 267 753 358 657 267 671 b 518 867 267 836 399 872 b 790 740 593 864 701 839 l 883 825 b 525 992 765 954 622 988 b 142 753 332 999 142 926 b 239 579 142 679 176 617 b 142 406 181 536 142 482 b 472 176 142 260 236 199 b 818 44 663 160 818 153 b 549 -82 818 -53 647 -82 b 374 -46 521 -82 451 -78 b 178 110 292 -14 226 39 l 75 39 b 326 -162 138 -53 222 -121 b 549 -207 421 -200 506 -207 b 943 44 736 -207 943 -137 b 858 215 943 111 918 176 z m 482 301 b 267 406 325 314 267 336 b 518 519 267 489 399 525 b 818 392 667 506 818 499 b 482 301 818 268 683 281 z "},"©":{"ha":1211,"x_min":0,"x_max":0,"o":"m 606 -17 b 51 540 261 -17 51 200 b 606 1089 51 871 267 1089 b 1160 540 940 1089 1160 875 b 606 -17 1160 203 953 -17 z m 606 964 b 176 540 347 964 176 806 b 606 108 176 278 333 108 b 1035 540 876 108 1035 275 b 606 964 1035 797 874 964 z m 611 183 b 263 533 396 183 263 322 b 611 885 263 743 393 885 b 931 689 756 885 878 818 l 815 642 b 611 760 781 722 704 760 b 388 533 467 760 388 678 b 611 308 388 394 463 308 b 818 433 704 308 782 343 l 935 389 b 611 183 883 253 761 183 z "},"®":{"ha":1211,"x_min":0,"x_max":0,"o":"m 606 1089 b 51 540 267 1089 51 871 b 606 -17 51 200 261 -17 b 1160 540 953 -17 1160 203 b 606 1089 1160 875 940 1089 z m 606 108 b 176 540 333 108 176 278 b 606 964 176 806 347 964 b 1035 540 874 964 1035 797 b 606 108 1035 275 876 108 z m 632 849 l 340 850 l 339 233 l 464 233 l 464 497 l 546 497 l 728 233 l 878 233 l 694 500 b 922 678 829 511 922 561 b 632 849 922 815 790 849 z m 632 622 l 464 622 l 464 725 l 632 724 b 797 678 733 724 797 719 b 632 622 797 629 732 622 z "},"°":{"ha":354,"x_min":0,"x_max":0,"o":"m 178 814 b 31 960 97 814 31 879 b 178 1106 31 1040 97 1106 b 324 960 258 1106 324 1040 b 178 814 324 879 258 814 z m 178 1015 b 121 960 147 1015 121 990 b 178 903 121 928 147 903 b 235 960 208 903 235 928 b 178 1015 235 990 208 1015 z "},"|":{"ha":413,"x_min":0,"x_max":0,"o":"m 272 -117 l 140 -117 l 140 1164 l 272 1164 z "},"¨":{"ha":678,"x_min":0,"x_max":0,"o":"m 42 935 b 138 1031 42 988 85 1031 b 233 935 192 1031 233 988 b 138 838 233 881 192 838 b 42 935 85 838 42 881 z m 443 935 b 539 1031 443 988 486 1031 b 636 935 593 1031 636 988 b 539 838 636 881 593 838 b 443 935 486 838 443 881 z "},"`":{"ha":447,"x_min":0,"x_max":0,"o":"m 343 842 l 42 1018 l 104 1126 l 406 949 z "},"´":{"ha":447,"x_min":0,"x_max":0,"o":"m 104 842 l 42 949 l 343 1126 l 406 1018 z "},"ˆ":{"ha":718,"x_min":0,"x_max":0,"o":"m 613 811 l 358 951 l 106 811 l 42 926 l 358 1103 l 676 926 z "},"ˇ":{"ha":715,"x_min":0,"x_max":0,"o":"m 613 1103 l 674 993 l 357 817 l 42 993 l 101 1103 l 357 960 z "},"˚":{"ha":376,"x_min":0,"x_max":0,"o":"m 189 808 b 42 954 108 808 42 874 b 189 1100 42 1035 108 1100 b 335 954 269 1100 335 1035 b 189 808 335 874 269 808 z m 189 1010 b 132 954 158 1010 132 985 b 189 897 132 922 158 897 b 246 954 219 897 246 922 b 189 1010 246 985 219 1010 z "},"˜":{"ha":654,"x_min":0,"x_max":0,"o":"m 161 838 l 42 838 b 210 1029 42 946 115 1029 b 353 988 258 1029 307 1008 b 444 958 386 974 422 958 b 493 1031 468 958 493 988 l 613 1031 b 444 838 613 924 538 838 b 304 878 397 838 349 858 b 210 910 269 894 233 910 b 161 838 183 910 161 878 z "},"¯":{"ha":661,"x_min":0,"x_max":0,"o":"m 619 878 l 42 878 l 42 1003 l 619 1003 z "},"¸":{"ha":379,"x_min":0,"x_max":0,"o":"m 190 -335 b 42 -186 108 -335 42 -268 l 143 -186 b 192 -233 143 -214 164 -233 b 236 -186 218 -233 236 -214 b 192 -140 236 -158 218 -140 l 106 -140 l 106 0 l 207 0 l 207 -40 b 338 -186 290 -40 338 -114 b 190 -335 338 -268 272 -335 z "}}}
